#N canvas 958 346 500 590 10;
#X msg 164 341 open \$1;
#X obj 241 133 text define -k \$0-playdir;
#A set /home/monz/Desktop/m-onz/m-toolbox/sounds/130_loop1.wav \; /home/monz/Desktop/m-onz/m-toolbox/sounds/130_loop2.wav
\; /home/monz/Desktop/m-onz/m-toolbox/sounds/130_loop3.wav \; /home/monz/Desktop/m-onz/m-toolbox/sounds/130_loop4.wav
\;;
#X obj 50 273 text get \$0-playdir;
#X obj 273 354 loadbang;
#X obj 237 537 outlet~;
#X obj 19 16 inlet;
#X obj 241 15 inlet;
#X floatatom 306 240 5 0 0 0 - - -;
#X obj 306 215 text size \$0-playdir;
#X obj 303 194 bng 15 250 50 0 empty empty empty 17 7 0 10 -262144
-1 -1;
#X obj 271 89 b;
#X obj 19 126 %;
#X obj 307 262 outlet;
#X obj 100 51 loadbang;
#X msg 98 77 clear;
#X obj 303 168 del 1;
#X obj 48 253 spigot;
#X obj 199 406 b;
#X obj 201 430 del 3;
#X obj 81 227 >= 0;
#X obj 50 315 trigger float symbol;
#X obj 244 417 else/changed;
#X obj 238 464 else/play.file~ 1;
#X obj 238 487 *~ 0.9;
#X msg 273 378 loop 1;
#X msg 173 209 stop;
#X obj 330 17 inlet;
#X connect 0 0 21 0;
#X connect 2 0 17 0;
#X connect 2 0 20 0;
#X connect 3 0 24 0;
#X connect 5 0 11 0;
#X connect 6 0 1 0;
#X connect 6 0 10 0;
#X connect 7 0 11 1;
#X connect 7 0 12 0;
#X connect 8 0 7 0;
#X connect 9 0 8 0;
#X connect 10 0 15 0;
#X connect 11 0 16 0;
#X connect 11 0 19 0;
#X connect 13 0 14 0;
#X connect 14 0 1 0;
#X connect 15 0 9 0;
#X connect 16 0 2 0;
#X connect 17 0 18 0;
#X connect 18 0 22 0;
#X connect 19 0 16 1;
#X connect 20 1 0 0;
#X connect 21 0 22 0;
#X connect 22 0 23 0;
#X connect 23 0 4 0;
#X connect 24 0 22 0;
#X connect 25 0 22 0;
#X connect 26 0 25 0;
