#N canvas 848 139 597 352 10;
#N canvas 273 177 645 473 FM_synth 0;
#X obj 6 398 osc~;
#X obj 109 69 osc~ 40;
#X text 51 7 freq;
#X obj 5 347 +~;
#X text 310 6 modulation index;
#X text 166 8 harmonicity;
#X obj 108 41 *~;
#X obj 144 137 *~;
#X obj 110 183 *~;
#X obj 6 419 outlet~;
#X obj 6 6 inlet~;
#X obj 123 9 inlet~;
#X obj 260 8 inlet~;
#X connect 0 0 9 0;
#X connect 1 0 8 0;
#X connect 3 0 0 0;
#X connect 6 0 1 0;
#X connect 6 0 7 0;
#X connect 7 0 8 1;
#X connect 8 0 3 1;
#X connect 10 0 6 0;
#X connect 10 0 3 0;
#X connect 11 0 6 1;
#X connect 12 0 7 1;
#X restore 17 210 pd FM_synth;
#N canvas 629 351 408 265 env 0;
#X obj 41 19 inlet;
#X obj 41 127 line~;
#X obj 41 169 *~;
#X obj 41 190 outlet~;
#X obj 41 148 *~;
#X obj 41 40 bng 15 250 50 0 empty empty empty 17 7 0 10 -262144 -1
-1;
#X obj 114 78 del 10;
#X obj 41 76 pack 1 3;
#X obj 112 98 pack 0 500;
#X obj 201 53 inlet;
#X floatatom 201 74 5 0 0 0 - - -;
#X text 238 74 decay time;
#X text 72 168 square the output;
#X text 67 151 square the output - steeper decay curve;
#X connect 0 0 5 0;
#X connect 1 0 4 0;
#X connect 1 0 4 1;
#X connect 2 0 3 0;
#X connect 4 0 2 0;
#X connect 4 0 2 1;
#X connect 5 0 6 0;
#X connect 5 0 7 0;
#X connect 6 0 8 0;
#X connect 7 0 1 0;
#X connect 8 0 1 0;
#X connect 9 0 10 0;
#X connect 10 0 8 1;
#X restore 123 57 pd env;
#X obj 17 50 mtof;
#X obj 17 86 t f b;
#N canvas 629 351 408 265 env 0;
#X obj 41 19 inlet;
#X obj 41 127 line~;
#X obj 41 169 *~;
#X obj 41 190 outlet~;
#X obj 41 148 *~;
#X obj 41 40 bng 15 250 50 0 empty empty empty 17 7 0 10 -262144 -1
-1;
#X obj 114 78 del 10;
#X obj 41 76 pack 1 3;
#X obj 112 98 pack 0 500;
#X obj 201 53 inlet;
#X floatatom 201 74 5 0 0 0 - - -;
#X text 238 74 decay time;
#X text 72 168 square the output;
#X text 67 151 square the output - steeper decay curve;
#X connect 0 0 5 0;
#X connect 1 0 4 0;
#X connect 1 0 4 1;
#X connect 2 0 3 0;
#X connect 4 0 2 0;
#X connect 4 0 2 1;
#X connect 5 0 6 0;
#X connect 5 0 7 0;
#X connect 6 0 8 0;
#X connect 7 0 1 0;
#X connect 8 0 1 0;
#X connect 9 0 10 0;
#X connect 10 0 8 1;
#X restore 312 190 pd env;
#X obj 16 281 *~;
#X obj 124 113 *~;
#X obj 17 18 inlet, f 8;
#X obj 147 86 inlet;
#X obj 51 160 inlet;
#X obj 204 22 inlet;
#X obj 345 143 inlet;
#X obj 16 302 outlet~;
#X connect 0 0 5 0;
#X connect 1 0 6 0;
#X connect 2 0 3 0;
#X connect 3 0 0 0;
#X connect 3 1 4 0;
#X connect 3 1 1 0;
#X connect 4 0 5 1;
#X connect 5 0 12 0;
#X connect 6 0 0 2;
#X connect 7 0 2 0;
#X connect 8 0 6 1;
#X connect 9 0 0 1;
#X connect 10 0 1 1;
#X connect 11 0 4 1;
