#N canvas 799 368 829 537 10;
#X floatatom 49 246 5 0 0 0 - - -;
#X floatatom 120 218 5 0 0 0 - - -;
#X floatatom 164 218 5 0 0 0 - - -;
#X floatatom 205 219 5 0 0 0 - - -;
#X floatatom 250 221 5 0 0 0 - - -;
#X floatatom 288 220 5 0 0 0 - - -;
#X obj 167 194 unpack 0 0 0 0, f 21;
#X obj 14 15 inlet;
#X obj 167 143 loadbang;
#X obj 89 425 outlet~;
#X obj 288 34 inlet;
#X obj 48 268 m-sub~;
#X obj 119 242 m-fm~, f 29;
#X obj 53 221 - 0;
#X obj 89 402 *~ 0.7;
#X msg 167 169 0.7 -3 11 1000;
#X connect 0 0 11 0;
#X connect 1 0 12 0;
#X connect 1 0 13 0;
#X connect 2 0 12 1;
#X connect 3 0 12 2;
#X connect 4 0 12 3;
#X connect 5 0 12 4;
#X connect 6 0 2 0;
#X connect 6 1 3 0;
#X connect 6 2 4 0;
#X connect 6 3 5 0;
#X connect 7 0 1 0;
#X connect 8 0 15 0;
#X connect 10 0 5 0;
#X connect 10 0 11 1;
#X connect 11 0 14 0;
#X connect 12 0 14 0;
#X connect 13 0 0 0;
#X connect 14 0 9 0;
#X connect 15 0 6 0;
