#N canvas 382 119 338 483 12;
#X floatatom 43 113 5 0 0 0 - - -;
#X obj 45 280 lop~ 80;
#X obj 44 304 lop~ 80;
#X obj 43 69 mtof;
#X floatatom 42 49 5 0 0 0 - - -;
#X obj 44 258 *~;
#X obj 95 104 bng 15 250 50 0 empty empty empty 17 7 0 10 -262144 -1
-1;
#X obj 48 23 inlet;
#X obj 46 442 outlet~;
#X obj 43 135 tri~;
#X obj 44 329 drive~;
#X obj 159 245 nbx 5 14 -1e+37 1e+37 0 0 empty empty empty 0 -8 0 10
-228856 -1 -1 4 256;
#X obj 162 223 hsl 128 15 0 5 0 0 empty empty empty -2 -8 0 10 -228856
-1 -1 10160 1;
#X obj 159 266 else/float2sig~ 50;
#X msg 158 192 4;
#X obj 194 113 loadbang;
#X obj 85 143 b;
#X obj 83 166 decay2~ 50 500;
#X obj 162 43 inlet;
#X obj 44 354 *~ 0.7;
#X connect 0 0 9 0;
#X connect 1 0 2 0;
#X connect 2 0 10 0;
#X connect 3 0 0 0;
#X connect 3 0 6 0;
#X connect 4 0 3 0;
#X connect 4 0 0 0;
#X connect 5 0 1 0;
#X connect 6 0 16 0;
#X connect 7 0 4 0;
#X connect 9 0 5 0;
#X connect 10 0 19 0;
#X connect 11 0 13 0;
#X connect 12 0 11 0;
#X connect 13 0 10 1;
#X connect 14 0 12 0;
#X connect 15 0 14 0;
#X connect 16 0 17 0;
#X connect 17 0 5 1;
#X connect 18 0 17 2;
#X connect 19 0 8 0;
