#N canvas 1082 121 834 754 10;
#X declare -path sounds;
#X declare -path ..;
#X declare -path else;
#X declare -path ../instruments;
#X obj 7 9 m-grid;
#X floatatom 7 32 5 0 0 0 - - -;
#X obj 5 53 bng 15 250 50 0 empty empty empty 17 7 0 10 -262144 -1
-1;
#X obj 54 484 playdir~;
#X obj 101 403 loadbang;
#X obj 299 11 declare -path sounds;
#X obj 31 645 *~ 0.9;
#X msg 81 455 read drumkit.txt;
#X obj 31 668 dac~;
#X msg 110 431 loop 0;
#X obj 36 154 moses 8;
#X obj 38 443 - 8;
#X floatatom 485 557 5 0 0 0 - - -;
#X floatatom 327 90 5 0 0 0 - - -;
#X obj 324 70 hradio 15 1 0 8 empty empty empty 0 -8 0 10 -262144 -1
-1 0;
#X text 451 70 0 stops the audio;
#X obj 201 465 playdir~;
#X obj 229 379 loadbang;
#X msg 228 436 read drumkit.txt;
#X msg 285 408 loop 0;
#X msg 284 257 16;
#X obj 29 95 moses 57;
#X floatatom 86 125 5 0 0 0 - - -;
#N canvas 188 330 1275 697 loopbank 1;
#X obj 212 207 tapeloop~, f 19;
#X obj 245 184 bng 15 250 50 0 empty empty empty 17 7 0 10 -262144
-1 -1;
#X obj 284 186 bng 15 250 50 0 empty empty empty 17 7 0 10 -262144
-1 -1;
#X obj 322 185 bng 15 250 50 0 empty empty empty 17 7 0 10 -262144
-1 -1;
#X obj 267 236 tgl 15 0 empty empty empty 17 7 0 10 -262144 -1 -1 0
1;
#X obj 321 228 tgl 15 0 empty empty empty 17 7 0 10 -262144 -1 -1 0
1;
#X text 283 232 recording;
#X text 341 224 playing;
#X obj 134 93 inlet;
#X obj 132 121 sel 0 1 2 3 4 5 6 7, f 152;
#X obj 133 157 s stop;
#X obj 325 161 r stop;
#X obj 27 26 inlet~;
#X obj 36 613 outlet~;
#X obj 327 370 tapeloop~, f 19;
#X obj 353 292 bng 15 250 50 0 empty empty empty 17 7 0 10 -262144
-1 -1;
#X obj 397 321 bng 15 250 50 0 empty empty empty 17 7 0 10 -262144
-1 -1;
#X obj 424 327 bng 15 250 50 0 empty empty empty 17 7 0 10 -262144
-1 -1;
#X obj 382 399 tgl 15 0 empty empty empty 17 7 0 10 -262144 -1 -1 0
1;
#X obj 436 391 tgl 15 0 empty empty empty 17 7 0 10 -262144 -1 -1 0
1;
#X text 398 395 recording;
#X text 456 387 playing;
#X obj 427 303 r stop;
#X obj 437 544 tapeloop~, f 19;
#X obj 470 521 bng 15 250 50 0 empty empty empty 17 7 0 10 -262144
-1 -1;
#X obj 509 523 bng 15 250 50 0 empty empty empty 17 7 0 10 -262144
-1 -1;
#X obj 547 522 bng 15 250 50 0 empty empty empty 17 7 0 10 -262144
-1 -1;
#X obj 492 573 tgl 15 0 empty empty empty 17 7 0 10 -262144 -1 -1 0
1;
#X obj 546 565 tgl 15 0 empty empty empty 17 7 0 10 -262144 -1 -1 0
1;
#X text 508 569 recording;
#X text 566 561 playing;
#X obj 550 498 r stop;
#X obj 553 269 tapeloop~, f 19;
#X obj 586 246 bng 15 250 50 0 empty empty empty 17 7 0 10 -262144
-1 -1;
#X obj 625 248 bng 15 250 50 0 empty empty empty 17 7 0 10 -262144
-1 -1;
#X obj 663 247 bng 15 250 50 0 empty empty empty 17 7 0 10 -262144
-1 -1;
#X obj 608 298 tgl 15 0 empty empty empty 17 7 0 10 -262144 -1 -1 0
1;
#X obj 662 290 tgl 15 0 empty empty empty 17 7 0 10 -262144 -1 -1 0
1;
#X text 624 294 recording;
#X text 682 286 playing;
#X obj 666 223 r stop;
#X obj 668 464 tapeloop~, f 19;
#X obj 697 441 bng 15 250 50 0 empty empty empty 17 7 0 10 -262144
-1 -1;
#X obj 740 443 bng 15 250 50 0 empty empty empty 17 7 0 10 -262144
-1 -1;
#X obj 778 442 bng 15 250 50 0 empty empty empty 17 7 0 10 -262144
-1 -1;
#X obj 723 493 tgl 15 0 empty empty empty 17 7 0 10 -262144 -1 -1 0
1;
#X obj 777 485 tgl 15 0 empty empty empty 17 7 0 10 -262144 -1 -1 0
1;
#X text 739 489 recording;
#X text 797 481 playing;
#X obj 781 418 r stop;
#X obj 784 306 tapeloop~, f 19;
#X obj 813 283 bng 15 250 50 0 empty empty empty 17 7 0 10 -262144
-1 -1;
#X obj 856 285 bng 15 250 50 0 empty empty empty 17 7 0 10 -262144
-1 -1;
#X obj 894 284 bng 15 250 50 0 empty empty empty 17 7 0 10 -262144
-1 -1;
#X obj 839 335 tgl 15 0 empty empty empty 17 7 0 10 -262144 -1 -1 0
1;
#X obj 893 327 tgl 15 0 empty empty empty 17 7 0 10 -262144 -1 -1 0
1;
#X text 855 331 recording;
#X text 913 323 playing;
#X obj 897 260 r stop;
#X obj 898 513 tapeloop~, f 19;
#X obj 927 490 bng 15 250 50 0 empty empty empty 17 7 0 10 -262144
-1 -1;
#X obj 970 492 bng 15 250 50 0 empty empty empty 17 7 0 10 -262144
-1 -1;
#X obj 1008 491 bng 15 250 50 0 empty empty empty 17 7 0 10 -262144
-1 -1;
#X obj 953 542 tgl 15 0 empty empty empty 17 7 0 10 -262144 -1 -1 0
1;
#X obj 1007 534 tgl 15 0 empty empty empty 17 7 0 10 -262144 -1 -1
0 1;
#X text 969 538 recording;
#X text 1027 530 playing;
#X obj 1011 467 r stop;
#X obj 231 620 outlet;
#X obj 278 621 outlet;
#X obj 330 623 outlet;
#X obj 380 621 outlet;
#X obj 427 622 outlet;
#X obj 479 624 outlet;
#X obj 550 620 outlet;
#X connect 0 0 13 0;
#X connect 0 1 4 0;
#X connect 0 2 5 0;
#X connect 1 0 0 1;
#X connect 2 0 0 2;
#X connect 3 0 0 3;
#X connect 4 0 68 0;
#X connect 8 0 9 0;
#X connect 9 0 10 0;
#X connect 9 1 1 0;
#X connect 9 2 15 0;
#X connect 9 3 24 0;
#X connect 9 4 33 0;
#X connect 9 5 42 0;
#X connect 9 6 51 0;
#X connect 9 7 60 0;
#X connect 11 0 3 0;
#X connect 12 0 14 0;
#X connect 12 0 0 0;
#X connect 12 0 32 0;
#X connect 12 0 23 0;
#X connect 12 0 50 0;
#X connect 12 0 41 0;
#X connect 12 0 59 0;
#X connect 14 0 13 0;
#X connect 14 1 18 0;
#X connect 14 2 19 0;
#X connect 15 0 14 1;
#X connect 16 0 14 2;
#X connect 17 0 14 3;
#X connect 18 0 69 0;
#X connect 22 0 17 0;
#X connect 23 0 13 0;
#X connect 23 1 27 0;
#X connect 23 2 28 0;
#X connect 24 0 23 1;
#X connect 25 0 23 2;
#X connect 26 0 23 3;
#X connect 27 0 70 0;
#X connect 31 0 26 0;
#X connect 32 0 13 0;
#X connect 32 1 36 0;
#X connect 32 2 37 0;
#X connect 33 0 32 1;
#X connect 34 0 32 2;
#X connect 35 0 32 3;
#X connect 36 0 71 0;
#X connect 40 0 35 0;
#X connect 41 0 13 0;
#X connect 41 1 45 0;
#X connect 41 2 46 0;
#X connect 42 0 41 1;
#X connect 43 0 41 2;
#X connect 44 0 41 3;
#X connect 45 0 72 0;
#X connect 49 0 44 0;
#X connect 50 0 13 0;
#X connect 50 1 54 0;
#X connect 50 2 55 0;
#X connect 51 0 50 1;
#X connect 52 0 50 2;
#X connect 53 0 50 3;
#X connect 54 0 73 0;
#X connect 58 0 53 0;
#X connect 59 0 13 0;
#X connect 59 1 63 0;
#X connect 59 2 64 0;
#X connect 60 0 59 1;
#X connect 61 0 59 2;
#X connect 62 0 59 3;
#X connect 63 0 74 0;
#X connect 67 0 62 0;
#X restore 282 579 pd loopbank;
#X f 35;
#X obj 532 593 else/router 2 0, f 18;
#X floatatom 635 569 5 0 0 0 - - -;
#X obj 465 16 declare -path ..;
#X obj 572 16 declare -path else;
#X obj 93 250 m-monobass~;
#X obj 104 209 + 24;
#X floatatom 165 204 5 0 0 0 - - -;
#X obj 17 223 moses 8;
#X obj 107 672 throw~ resample;
#X obj 285 530 catch~ resample;
#X obj 310 601 tgl 15 0 empty empty empty 17 7 0 10 -262144 -1 -1 0
1;
#X obj 341 601 tgl 15 0 empty empty empty 17 7 0 10 -262144 -1 -1 0
1;
#X obj 370 601 tgl 15 0 empty empty empty 17 7 0 10 -262144 -1 -1 0
1;
#X obj 401 601 tgl 15 0 empty empty empty 17 7 0 10 -262144 -1 -1 0
1;
#X obj 427 602 tgl 15 0 empty empty empty 17 7 0 10 -262144 -1 -1 0
1;
#X obj 456 602 tgl 15 0 empty empty empty 17 7 0 10 -262144 -1 -1 0
1;
#X obj 487 602 tgl 15 0 empty empty empty 17 7 0 10 -262144 -1 -1 0
1;
#N canvas 42 297 632 453 transport 0;
#X floatatom 125 102 5 0 0 0 BPM - -;
#X obj 130 52 loadbang;
#X obj 53 315 bng 15 250 50 0 empty empty empty 17 7 0 10 -262144 -1
-1;
#X obj 74 316 bng 15 250 50 0 empty empty empty 17 7 0 10 -262144 -1
-1;
#X msg 129 77 130;
#X obj 97 318 bng 15 250 50 0 empty empty empty 17 7 0 10 -262144 -1
-1;
#X floatatom 92 197 5 0 0 0 - - -;
#X obj 40 124 m-metro;
#X obj 135 122 swap 60000;
#X obj 135 147 /;
#X floatatom 135 172 5 0 0 0 - - -;
#X obj 91 222 sel 1;
#X obj 94 245 bng 15 250 50 0 empty empty empty 17 7 0 10 -262144 -1
-1;
#X obj 134 213 s m-metro-measure;
#X obj 97 268 s m-metro-bar;
#X obj 134 191 * 32;
#X obj 39 408 outlet;
#X obj 89 406 outlet;
#X obj 136 406 outlet;
#X obj 181 405 outlet;
#X obj 47 44 inlet;
#X obj 223 42 inlet;
#X connect 0 0 7 1;
#X connect 0 0 8 0;
#X connect 1 0 4 0;
#X connect 2 0 17 0;
#X connect 3 0 18 0;
#X connect 4 0 0 0;
#X connect 5 0 19 0;
#X connect 6 0 11 0;
#X connect 7 0 16 0;
#X connect 7 1 2 0;
#X connect 7 2 3 0;
#X connect 7 3 5 0;
#X connect 7 4 6 0;
#X connect 8 0 9 0;
#X connect 8 1 9 1;
#X connect 9 0 10 0;
#X connect 10 0 15 0;
#X connect 11 0 12 0;
#X connect 12 0 14 0;
#X connect 15 0 13 0;
#X connect 20 0 7 0;
#X connect 21 0 0 0;
#X restore 330 116 pd transport;
#X obj 463 39 declare -path ../instruments;
#X connect 0 0 1 0;
#X connect 1 0 2 0;
#X connect 1 0 21 0;
#X connect 3 0 6 0;
#X connect 3 0 23 0;
#X connect 4 0 7 0;
#X connect 4 0 9 0;
#X connect 6 0 8 0;
#X connect 6 0 8 1;
#X connect 6 0 32 0;
#X connect 7 0 3 1;
#X connect 9 0 3 2;
#X connect 10 0 14 0;
#X connect 10 1 29 0;
#X connect 11 0 3 0;
#X connect 12 0 24 0;
#X connect 12 0 23 1;
#X connect 13 0 41 0;
#X connect 14 0 13 0;
#X connect 16 0 6 0;
#X connect 17 0 18 0;
#X connect 17 0 19 0;
#X connect 18 0 16 1;
#X connect 19 0 16 2;
#X connect 20 0 16 0;
#X connect 21 0 10 0;
#X connect 21 1 22 0;
#X connect 23 0 6 0;
#X connect 23 1 34 0;
#X connect 23 2 35 0;
#X connect 23 3 36 0;
#X connect 23 4 37 0;
#X connect 23 5 38 0;
#X connect 23 6 39 0;
#X connect 23 7 40 0;
#X connect 25 0 24 1;
#X connect 28 0 6 0;
#X connect 29 0 28 0;
#X connect 30 0 28 1;
#X connect 41 0 12 0;
#X connect 41 1 20 0;
