#N canvas 771 456 535 468 10;
#X obj 12 125 netreceive -u -b;
#X obj 12 148 oscparse;
#X obj 12 170 list trim;
#X floatatom 81 348 5 0 0 0 - - -;
#X obj 44 249 print;
#X text 74 77 m-grid;
#X obj 12 326 unpack s s f;
#X msg 11 101 listen 9999;
#X obj 12 77 loadbang;
#X obj 45 226 spigot;
#X obj 78 206 tgl 15 0 empty empty empty 17 7 0 10 -262144 -1 -1 0
1;
#X obj 13 23 inlet;
#X obj 13 46 route debug listen;
#X obj 81 370 outlet;
#X obj 150 336 bng 15 250 50 0 empty empty empty 17 7 0 10 -262144
-1 -1;
#X connect 0 0 1 0;
#X connect 1 0 2 0;
#X connect 2 0 6 0;
#X connect 2 0 9 0;
#X connect 3 0 13 0;
#X connect 6 2 3 0;
#X connect 6 2 14 0;
#X connect 7 0 0 0;
#X connect 8 0 7 0;
#X connect 9 0 4 0;
#X connect 10 0 9 1;
#X connect 11 0 12 0;
#X connect 12 0 10 0;
#X connect 12 1 7 0;

